<mxfile host="app.diagrams.net" modified="2023-09-25T09:31:24.023Z" agent="Mozilla/5.0 (Windows NT 10.0; Win64; x64) AppleWebKit/537.36 (KHTML, like Gecko) Chrome/117.0.0.0 Safari/537.36" etag="y05L90xHlj8VToRWhe4A" version="21.8.0" type="device">
  <diagram name="Page-1" id="2XKWPcIbEDFmkF_fYan6">
    <mxGraphModel dx="1687" dy="882" grid="1" gridSize="10" guides="1" tooltips="1" connect="1" arrows="1" fold="1" page="1" pageScale="1" pageWidth="1169" pageHeight="827" math="1" shadow="0">
      <root>
        <mxCell id="0" />
        <mxCell id="1" parent="0" />
        <mxCell id="3UGmoN3XCpKJd4NJfJ8R-1" value="" style="rounded=1;whiteSpace=wrap;html=1;arcSize=10;absoluteArcSize=1;fillColor=#dae8fc;strokeColor=#6c8ebf;" parent="1" vertex="1">
          <mxGeometry x="140" y="50" width="280" height="190" as="geometry" />
        </mxCell>
        <mxCell id="3UGmoN3XCpKJd4NJfJ8R-2" value="" style="rounded=0;orthogonalLoop=1;jettySize=auto;html=1;fontFamily=Helvetica;fontSize=12;endArrow=none;endFill=0;entryX=0;entryY=0.5;entryDx=0;entryDy=0;exitX=1;exitY=0.5;exitDx=0;exitDy=0;" parent="1" source="3UGmoN3XCpKJd4NJfJ8R-4" target="3UGmoN3XCpKJd4NJfJ8R-39" edge="1">
          <mxGeometry relative="1" as="geometry">
            <mxPoint x="530" y="170" as="sourcePoint" />
            <mxPoint x="550" y="140" as="targetPoint" />
            <Array as="points" />
          </mxGeometry>
        </mxCell>
        <mxCell id="3UGmoN3XCpKJd4NJfJ8R-3" value="$$y$$" style="edgeLabel;html=1;align=center;verticalAlign=middle;resizable=0;points=[];labelBackgroundColor=none;" parent="3UGmoN3XCpKJd4NJfJ8R-2" vertex="1" connectable="0">
          <mxGeometry relative="1" as="geometry">
            <mxPoint x="1" y="-9" as="offset" />
          </mxGeometry>
        </mxCell>
        <mxCell id="3UGmoN3XCpKJd4NJfJ8R-4" value="&lt;font data-font-src=&quot;https://fonts.googleapis.com/css?family=KaTeX_Math&quot; style=&quot;font-size: 12px;&quot;&gt;$$P$$&lt;/font&gt;" style="rounded=1;whiteSpace=wrap;html=1;fillColor=#d5e8d4;strokeColor=#82b366;fontFamily=Helvetica;fontSize=12;fontStyle=2;absoluteArcSize=1;arcSize=10;" parent="1" vertex="1">
          <mxGeometry x="460" y="130" width="60" height="40" as="geometry" />
        </mxCell>
        <mxCell id="3UGmoN3XCpKJd4NJfJ8R-5" style="rounded=0;orthogonalLoop=1;jettySize=auto;html=1;entryX=0;entryY=0.5;entryDx=0;entryDy=0;exitX=1;exitY=0.5;exitDx=0;exitDy=0;fontFamily=Helvetica;fontSize=12;endArrow=classicThin;endFill=1;" parent="1" source="3UGmoN3XCpKJd4NJfJ8R-33" target="3UGmoN3XCpKJd4NJfJ8R-4" edge="1">
          <mxGeometry relative="1" as="geometry">
            <mxPoint x="420" y="160" as="sourcePoint" />
            <Array as="points" />
          </mxGeometry>
        </mxCell>
        <mxCell id="3UGmoN3XCpKJd4NJfJ8R-6" value="$$u$$" style="edgeLabel;html=1;align=center;verticalAlign=middle;resizable=0;points=[];labelBackgroundColor=none;" parent="3UGmoN3XCpKJd4NJfJ8R-5" vertex="1" connectable="0">
          <mxGeometry relative="1" as="geometry">
            <mxPoint x="10" y="-9" as="offset" />
          </mxGeometry>
        </mxCell>
        <mxCell id="3UGmoN3XCpKJd4NJfJ8R-7" style="rounded=0;orthogonalLoop=1;jettySize=auto;html=1;exitX=1;exitY=0.5;exitDx=0;exitDy=0;entryX=0;entryY=0.5;entryDx=0;entryDy=0;strokeColor=default;endArrow=none;endFill=0;fontFamily=Helvetica;fontSize=12;" parent="1" source="3UGmoN3XCpKJd4NJfJ8R-10" edge="1" target="3UGmoN3XCpKJd4NJfJ8R-38">
          <mxGeometry relative="1" as="geometry">
            <mxPoint x="140" y="160" as="targetPoint" />
          </mxGeometry>
        </mxCell>
        <mxCell id="3UGmoN3XCpKJd4NJfJ8R-8" value="$$e$$" style="edgeLabel;html=1;align=center;verticalAlign=middle;resizable=0;points=[];fontFamily=Helvetica;fontSize=12;labelBackgroundColor=none;" parent="3UGmoN3XCpKJd4NJfJ8R-7" vertex="1" connectable="0">
          <mxGeometry relative="1" as="geometry">
            <mxPoint x="-10" y="-9" as="offset" />
          </mxGeometry>
        </mxCell>
        <mxCell id="3UGmoN3XCpKJd4NJfJ8R-9" style="edgeStyle=orthogonalEdgeStyle;rounded=0;orthogonalLoop=1;jettySize=auto;html=1;entryX=0.5;entryY=1;entryDx=0;entryDy=0;exitX=1;exitY=0.5;exitDx=0;exitDy=0;endArrow=classicThin;endFill=1;" parent="1" source="3UGmoN3XCpKJd4NJfJ8R-34" target="3UGmoN3XCpKJd4NJfJ8R-10" edge="1">
          <mxGeometry relative="1" as="geometry">
            <mxPoint x="160" y="280" as="sourcePoint" />
            <Array as="points">
              <mxPoint x="90" y="270" />
            </Array>
            <mxPoint x="90" y="223" as="targetPoint" />
          </mxGeometry>
        </mxCell>
        <mxCell id="3UGmoN3XCpKJd4NJfJ8R-10" value="$$+$$" style="ellipse;whiteSpace=wrap;html=1;aspect=fixed;fontFamily=Helvetica;fontSize=12;spacing=0;" parent="1" vertex="1">
          <mxGeometry x="80" y="140" width="20" height="20" as="geometry" />
        </mxCell>
        <mxCell id="3UGmoN3XCpKJd4NJfJ8R-11" value="" style="endArrow=classicThin;html=1;rounded=0;entryX=0;entryY=0.5;entryDx=0;entryDy=0;fontFamily=Helvetica;fontSize=12;endFill=1;" parent="1" target="3UGmoN3XCpKJd4NJfJ8R-10" edge="1">
          <mxGeometry width="50" height="50" relative="1" as="geometry">
            <mxPoint x="40" y="150" as="sourcePoint" />
            <mxPoint x="10" y="160" as="targetPoint" />
          </mxGeometry>
        </mxCell>
        <mxCell id="3UGmoN3XCpKJd4NJfJ8R-12" value="$$r$$" style="edgeLabel;html=1;align=center;verticalAlign=middle;resizable=0;points=[];fontFamily=Helvetica;fontSize=12;labelBackgroundColor=none;" parent="3UGmoN3XCpKJd4NJfJ8R-11" vertex="1" connectable="0">
          <mxGeometry relative="1" as="geometry">
            <mxPoint x="-3" y="-9" as="offset" />
          </mxGeometry>
        </mxCell>
        <mxCell id="3UGmoN3XCpKJd4NJfJ8R-13" style="rounded=0;orthogonalLoop=1;jettySize=auto;html=1;exitX=0.5;exitY=1;exitDx=0;exitDy=0;entryX=0.5;entryY=0;entryDx=0;entryDy=0;fontFamily=Helvetica;fontSize=12;endArrow=classicThin;endFill=1;dashed=1;" parent="1" source="3UGmoN3XCpKJd4NJfJ8R-15" target="3UGmoN3XCpKJd4NJfJ8R-18" edge="1">
          <mxGeometry relative="1" as="geometry">
            <mxPoint x="590" y="70" as="sourcePoint" />
          </mxGeometry>
        </mxCell>
        <mxCell id="3UGmoN3XCpKJd4NJfJ8R-14" value="$$n$$" style="edgeLabel;html=1;align=center;verticalAlign=middle;resizable=0;points=[];labelBackgroundColor=none;" parent="3UGmoN3XCpKJd4NJfJ8R-13" vertex="1" connectable="0">
          <mxGeometry relative="1" as="geometry">
            <mxPoint x="7" y="-5" as="offset" />
          </mxGeometry>
        </mxCell>
        <mxCell id="i-1P1SJiFzJJRI6rw9ve-2" value="" style="edgeStyle=orthogonalEdgeStyle;rounded=0;orthogonalLoop=1;jettySize=auto;html=1;" edge="1" parent="1" source="3UGmoN3XCpKJd4NJfJ8R-15" target="3UGmoN3XCpKJd4NJfJ8R-18">
          <mxGeometry relative="1" as="geometry" />
        </mxCell>
        <mxCell id="3UGmoN3XCpKJd4NJfJ8R-15" value="$$N$$" style="rounded=1;whiteSpace=wrap;html=1;fillColor=#fff2cc;strokeColor=#d6b656;fontFamily=Helvetica;fontSize=12;fontStyle=2;absoluteArcSize=1;arcSize=10;" parent="1" vertex="1">
          <mxGeometry x="460" y="180" width="60" height="40" as="geometry" />
        </mxCell>
        <mxCell id="3UGmoN3XCpKJd4NJfJ8R-16" style="rounded=0;orthogonalLoop=1;jettySize=auto;html=1;exitX=1;exitY=0.5;exitDx=0;exitDy=0;fontFamily=Helvetica;fontSize=12;endArrow=classicThin;endFill=1;" parent="1" source="3UGmoN3XCpKJd4NJfJ8R-39" edge="1">
          <mxGeometry relative="1" as="geometry">
            <mxPoint x="600" y="150" as="targetPoint" />
          </mxGeometry>
        </mxCell>
        <mxCell id="3UGmoN3XCpKJd4NJfJ8R-17" style="rounded=0;orthogonalLoop=1;jettySize=auto;html=1;entryX=0.5;entryY=1;entryDx=0;entryDy=0;endArrow=none;endFill=0;exitX=1;exitY=0.5;exitDx=0;exitDy=0;" parent="1" source="3UGmoN3XCpKJd4NJfJ8R-18" target="3UGmoN3XCpKJd4NJfJ8R-39" edge="1">
          <mxGeometry relative="1" as="geometry">
            <mxPoint x="590" y="150" as="sourcePoint" />
            <Array as="points">
              <mxPoint x="560" y="270" />
            </Array>
          </mxGeometry>
        </mxCell>
        <mxCell id="3UGmoN3XCpKJd4NJfJ8R-18" value="$$+$$" style="ellipse;whiteSpace=wrap;html=1;aspect=fixed;fontFamily=Helvetica;fontSize=12;spacing=0;" parent="1" vertex="1">
          <mxGeometry x="480" y="260" width="20" height="20" as="geometry" />
        </mxCell>
        <mxCell id="3UGmoN3XCpKJd4NJfJ8R-19" style="edgeStyle=orthogonalEdgeStyle;rounded=0;orthogonalLoop=1;jettySize=auto;html=1;exitX=1;exitY=0.5;exitDx=0;exitDy=0;entryX=0.5;entryY=1;entryDx=0;entryDy=0;endArrow=classicThin;endFill=1;" parent="1" source="3UGmoN3XCpKJd4NJfJ8R-20" target="3UGmoN3XCpKJd4NJfJ8R-33" edge="1">
          <mxGeometry relative="1" as="geometry" />
        </mxCell>
        <mxCell id="3UGmoN3XCpKJd4NJfJ8R-20" value="$$\Delta$$" style="rounded=1;whiteSpace=wrap;html=1;fontFamily=Helvetica;fontSize=18;fontStyle=0;absoluteArcSize=1;arcSize=10;" parent="1" vertex="1">
          <mxGeometry x="280" y="180" width="60" height="40" as="geometry" />
        </mxCell>
        <mxCell id="3UGmoN3XCpKJd4NJfJ8R-21" value="" style="endArrow=none;html=1;rounded=0;fontFamily=Helvetica;fontSize=12;exitX=0.5;exitY=0;exitDx=0;exitDy=0;" parent="1" source="3UGmoN3XCpKJd4NJfJ8R-38" edge="1">
          <mxGeometry width="50" height="50" relative="1" as="geometry">
            <mxPoint x="160" y="160" as="sourcePoint" />
            <mxPoint x="160" y="100" as="targetPoint" />
          </mxGeometry>
        </mxCell>
        <mxCell id="3UGmoN3XCpKJd4NJfJ8R-22" value="" style="endArrow=none;html=1;rounded=0;entryX=0;entryY=0.5;entryDx=0;entryDy=0;fontFamily=Helvetica;fontSize=12;endFill=0;" parent="1" target="3UGmoN3XCpKJd4NJfJ8R-26" edge="1">
          <mxGeometry width="50" height="50" relative="1" as="geometry">
            <mxPoint x="160" y="100" as="sourcePoint" />
            <mxPoint x="200" y="100" as="targetPoint" />
          </mxGeometry>
        </mxCell>
        <mxCell id="3UGmoN3XCpKJd4NJfJ8R-24" value="" style="endArrow=none;html=1;rounded=0;entryX=0;entryY=0.5;entryDx=0;entryDy=0;fontFamily=Helvetica;fontSize=12;endFill=0;exitX=0.5;exitY=1;exitDx=0;exitDy=0;" parent="1" source="3UGmoN3XCpKJd4NJfJ8R-38" target="3UGmoN3XCpKJd4NJfJ8R-30" edge="1">
          <mxGeometry width="50" height="50" relative="1" as="geometry">
            <mxPoint x="90" y="220" as="sourcePoint" />
            <mxPoint x="180" y="219.71000000000004" as="targetPoint" />
            <Array as="points">
              <mxPoint x="160" y="200" />
            </Array>
          </mxGeometry>
        </mxCell>
        <mxCell id="3UGmoN3XCpKJd4NJfJ8R-25" style="edgeStyle=orthogonalEdgeStyle;rounded=0;orthogonalLoop=1;jettySize=auto;html=1;exitX=1;exitY=0.5;exitDx=0;exitDy=0;entryX=0.5;entryY=0;entryDx=0;entryDy=0;endArrow=classicThin;endFill=1;" parent="1" source="3UGmoN3XCpKJd4NJfJ8R-26" target="3UGmoN3XCpKJd4NJfJ8R-33" edge="1">
          <mxGeometry relative="1" as="geometry" />
        </mxCell>
        <mxCell id="3UGmoN3XCpKJd4NJfJ8R-26" value="$$K_p$$" style="triangle;whiteSpace=wrap;html=1;align=left;spacingLeft=4;fontFamily=Helvetica;fontSize=12;spacing=0;" parent="1" vertex="1">
          <mxGeometry x="200" y="80" width="40" height="40" as="geometry" />
        </mxCell>
        <mxCell id="3UGmoN3XCpKJd4NJfJ8R-27" style="rounded=0;orthogonalLoop=1;jettySize=auto;html=1;exitX=1;exitY=0.5;exitDx=0;exitDy=0;entryX=0;entryY=0.5;entryDx=0;entryDy=0;endArrow=classicThin;endFill=1;" parent="1" source="3UGmoN3XCpKJd4NJfJ8R-28" target="3UGmoN3XCpKJd4NJfJ8R-32" edge="1">
          <mxGeometry relative="1" as="geometry" />
        </mxCell>
        <mxCell id="3UGmoN3XCpKJd4NJfJ8R-28" value="$$K_i$$" style="triangle;whiteSpace=wrap;html=1;align=left;spacingLeft=4;fontFamily=Helvetica;fontSize=12;spacing=0;" parent="1" vertex="1">
          <mxGeometry x="200" y="130" width="40" height="40" as="geometry" />
        </mxCell>
        <mxCell id="3UGmoN3XCpKJd4NJfJ8R-29" style="edgeStyle=orthogonalEdgeStyle;rounded=0;orthogonalLoop=1;jettySize=auto;html=1;exitX=1;exitY=0.5;exitDx=0;exitDy=0;entryX=0;entryY=0.5;entryDx=0;entryDy=0;endArrow=classicThin;endFill=1;" parent="1" source="3UGmoN3XCpKJd4NJfJ8R-30" target="3UGmoN3XCpKJd4NJfJ8R-20" edge="1">
          <mxGeometry relative="1" as="geometry" />
        </mxCell>
        <mxCell id="3UGmoN3XCpKJd4NJfJ8R-30" value="$$K_d$$" style="triangle;whiteSpace=wrap;html=1;align=left;spacingLeft=4;fontFamily=Helvetica;fontSize=12;spacing=0;" parent="1" vertex="1">
          <mxGeometry x="200" y="180" width="40" height="40" as="geometry" />
        </mxCell>
        <mxCell id="3UGmoN3XCpKJd4NJfJ8R-31" style="edgeStyle=orthogonalEdgeStyle;rounded=0;orthogonalLoop=1;jettySize=auto;html=1;exitX=1;exitY=0.5;exitDx=0;exitDy=0;entryX=0;entryY=0.5;entryDx=0;entryDy=0;endArrow=classicThin;endFill=1;" parent="1" source="3UGmoN3XCpKJd4NJfJ8R-32" target="3UGmoN3XCpKJd4NJfJ8R-33" edge="1">
          <mxGeometry relative="1" as="geometry">
            <Array as="points">
              <mxPoint x="340" y="160" />
              <mxPoint x="340" y="160" />
            </Array>
          </mxGeometry>
        </mxCell>
        <mxCell id="3UGmoN3XCpKJd4NJfJ8R-32" value="$$\sum$$" style="rounded=1;whiteSpace=wrap;html=1;fontFamily=Helvetica;fontSize=12;fontStyle=0;absoluteArcSize=1;arcSize=10;" parent="1" vertex="1">
          <mxGeometry x="280" y="130" width="60" height="40" as="geometry" />
        </mxCell>
        <mxCell id="3UGmoN3XCpKJd4NJfJ8R-33" value="$$+$$" style="ellipse;whiteSpace=wrap;html=1;aspect=fixed;fontFamily=Helvetica;fontSize=12;spacing=0;" parent="1" vertex="1">
          <mxGeometry x="380" y="140" width="20" height="20" as="geometry" />
        </mxCell>
        <mxCell id="3UGmoN3XCpKJd4NJfJ8R-34" value="$$-$$" style="triangle;whiteSpace=wrap;html=1;align=left;spacingLeft=9;fontFamily=Helvetica;fontSize=12;rotation=-180;spacing=0;" parent="1" vertex="1">
          <mxGeometry x="200" y="250" width="40" height="40" as="geometry" />
        </mxCell>
        <mxCell id="3UGmoN3XCpKJd4NJfJ8R-37" style="edgeStyle=orthogonalEdgeStyle;rounded=0;orthogonalLoop=1;jettySize=auto;html=1;exitX=1;exitY=0.5;exitDx=0;exitDy=0;entryX=0;entryY=0.5;entryDx=0;entryDy=0;endArrow=none;endFill=0;" parent="1" source="3UGmoN3XCpKJd4NJfJ8R-38" target="3UGmoN3XCpKJd4NJfJ8R-28" edge="1">
          <mxGeometry relative="1" as="geometry" />
        </mxCell>
        <mxCell id="3UGmoN3XCpKJd4NJfJ8R-38" value="" style="ellipse;whiteSpace=wrap;html=1;strokeColor=none;fillColor=#000000;" parent="1" vertex="1">
          <mxGeometry x="157" y="147" width="6" height="6" as="geometry" />
        </mxCell>
        <mxCell id="3UGmoN3XCpKJd4NJfJ8R-39" value="" style="ellipse;whiteSpace=wrap;html=1;strokeColor=none;fillColor=#000000;" parent="1" vertex="1">
          <mxGeometry x="557" y="147" width="6" height="6" as="geometry" />
        </mxCell>
        <mxCell id="3UGmoN3XCpKJd4NJfJ8R-40" value="$$C$$" style="text;html=1;strokeColor=none;fillColor=none;align=center;verticalAlign=middle;whiteSpace=wrap;rounded=0;" parent="1" vertex="1">
          <mxGeometry x="250" y="50" width="60" height="40" as="geometry" />
        </mxCell>
        <mxCell id="3UGmoN3XCpKJd4NJfJ8R-41" value="" style="endArrow=none;html=1;rounded=0;edgeStyle=orthogonalEdgeStyle;entryX=0;entryY=0.5;entryDx=0;entryDy=0;exitX=0;exitY=0.5;exitDx=0;exitDy=0;" parent="1" source="3UGmoN3XCpKJd4NJfJ8R-34" target="3UGmoN3XCpKJd4NJfJ8R-18" edge="1">
          <mxGeometry width="50" height="50" relative="1" as="geometry">
            <mxPoint x="520" y="268" as="sourcePoint" />
            <mxPoint x="610" y="160" as="targetPoint" />
          </mxGeometry>
        </mxCell>
        <mxCell id="i-1P1SJiFzJJRI6rw9ve-3" value="" style="rounded=1;whiteSpace=wrap;html=1;arcSize=10;absoluteArcSize=1;fillColor=#dae8fc;strokeColor=#6c8ebf;" vertex="1" parent="1">
          <mxGeometry x="140" y="330" width="280" height="190" as="geometry" />
        </mxCell>
        <mxCell id="i-1P1SJiFzJJRI6rw9ve-4" value="" style="rounded=0;orthogonalLoop=1;jettySize=auto;html=1;fontFamily=Helvetica;fontSize=12;endArrow=none;endFill=0;entryX=0;entryY=0.5;entryDx=0;entryDy=0;exitX=1;exitY=0.5;exitDx=0;exitDy=0;" edge="1" parent="1" source="i-1P1SJiFzJJRI6rw9ve-6" target="i-1P1SJiFzJJRI6rw9ve-40">
          <mxGeometry relative="1" as="geometry">
            <mxPoint x="530" y="450" as="sourcePoint" />
            <mxPoint x="550" y="420" as="targetPoint" />
            <Array as="points" />
          </mxGeometry>
        </mxCell>
        <mxCell id="i-1P1SJiFzJJRI6rw9ve-5" value="$$y$$" style="edgeLabel;html=1;align=center;verticalAlign=middle;resizable=0;points=[];labelBackgroundColor=none;" vertex="1" connectable="0" parent="i-1P1SJiFzJJRI6rw9ve-4">
          <mxGeometry relative="1" as="geometry">
            <mxPoint x="1" y="-9" as="offset" />
          </mxGeometry>
        </mxCell>
        <mxCell id="i-1P1SJiFzJJRI6rw9ve-6" value="&lt;font data-font-src=&quot;https://fonts.googleapis.com/css?family=KaTeX_Math&quot; style=&quot;font-size: 12px;&quot;&gt;$$P$$&lt;/font&gt;" style="rounded=1;whiteSpace=wrap;html=1;fillColor=#d5e8d4;strokeColor=#82b366;fontFamily=Helvetica;fontSize=12;fontStyle=2;absoluteArcSize=1;arcSize=10;" vertex="1" parent="1">
          <mxGeometry x="460" y="410" width="60" height="40" as="geometry" />
        </mxCell>
        <mxCell id="i-1P1SJiFzJJRI6rw9ve-7" style="rounded=0;orthogonalLoop=1;jettySize=auto;html=1;entryX=0;entryY=0.5;entryDx=0;entryDy=0;exitX=1;exitY=0.5;exitDx=0;exitDy=0;fontFamily=Helvetica;fontSize=12;endArrow=classicThin;endFill=1;" edge="1" parent="1" source="i-1P1SJiFzJJRI6rw9ve-36" target="i-1P1SJiFzJJRI6rw9ve-6">
          <mxGeometry relative="1" as="geometry">
            <mxPoint x="420" y="440" as="sourcePoint" />
            <Array as="points" />
          </mxGeometry>
        </mxCell>
        <mxCell id="i-1P1SJiFzJJRI6rw9ve-8" value="$$u$$" style="edgeLabel;html=1;align=center;verticalAlign=middle;resizable=0;points=[];labelBackgroundColor=none;" vertex="1" connectable="0" parent="i-1P1SJiFzJJRI6rw9ve-7">
          <mxGeometry relative="1" as="geometry">
            <mxPoint x="10" y="-9" as="offset" />
          </mxGeometry>
        </mxCell>
        <mxCell id="i-1P1SJiFzJJRI6rw9ve-9" style="rounded=0;orthogonalLoop=1;jettySize=auto;html=1;exitX=1;exitY=0.5;exitDx=0;exitDy=0;entryX=0;entryY=0.5;entryDx=0;entryDy=0;strokeColor=default;endArrow=none;endFill=0;fontFamily=Helvetica;fontSize=12;" edge="1" parent="1" source="i-1P1SJiFzJJRI6rw9ve-12" target="i-1P1SJiFzJJRI6rw9ve-39">
          <mxGeometry relative="1" as="geometry">
            <mxPoint x="140" y="440" as="targetPoint" />
          </mxGeometry>
        </mxCell>
        <mxCell id="i-1P1SJiFzJJRI6rw9ve-10" value="$$e$$" style="edgeLabel;html=1;align=center;verticalAlign=middle;resizable=0;points=[];fontFamily=Helvetica;fontSize=12;labelBackgroundColor=none;" vertex="1" connectable="0" parent="i-1P1SJiFzJJRI6rw9ve-9">
          <mxGeometry relative="1" as="geometry">
            <mxPoint x="-10" y="-9" as="offset" />
          </mxGeometry>
        </mxCell>
        <mxCell id="i-1P1SJiFzJJRI6rw9ve-11" style="edgeStyle=orthogonalEdgeStyle;rounded=0;orthogonalLoop=1;jettySize=auto;html=1;exitX=1;exitY=0.5;exitDx=0;exitDy=0;endArrow=none;endFill=0;entryX=0.5;entryY=1;entryDx=0;entryDy=0;" edge="1" parent="1" source="i-1P1SJiFzJJRI6rw9ve-37" target="i-1P1SJiFzJJRI6rw9ve-43">
          <mxGeometry relative="1" as="geometry">
            <mxPoint x="160" y="560" as="sourcePoint" />
            <Array as="points">
              <mxPoint x="90" y="550" />
            </Array>
            <mxPoint x="90" y="490" as="targetPoint" />
          </mxGeometry>
        </mxCell>
        <mxCell id="i-1P1SJiFzJJRI6rw9ve-12" value="$$+$$" style="ellipse;whiteSpace=wrap;html=1;aspect=fixed;fontFamily=Helvetica;fontSize=12;spacing=0;" vertex="1" parent="1">
          <mxGeometry x="80" y="420" width="20" height="20" as="geometry" />
        </mxCell>
        <mxCell id="i-1P1SJiFzJJRI6rw9ve-13" value="" style="endArrow=classicThin;html=1;rounded=0;entryX=0;entryY=0.5;entryDx=0;entryDy=0;fontFamily=Helvetica;fontSize=12;endFill=1;" edge="1" parent="1" target="i-1P1SJiFzJJRI6rw9ve-12">
          <mxGeometry width="50" height="50" relative="1" as="geometry">
            <mxPoint x="40" y="430" as="sourcePoint" />
            <mxPoint x="10" y="440" as="targetPoint" />
          </mxGeometry>
        </mxCell>
        <mxCell id="i-1P1SJiFzJJRI6rw9ve-14" value="$$r$$" style="edgeLabel;html=1;align=center;verticalAlign=middle;resizable=0;points=[];fontFamily=Helvetica;fontSize=12;labelBackgroundColor=none;" vertex="1" connectable="0" parent="i-1P1SJiFzJJRI6rw9ve-13">
          <mxGeometry relative="1" as="geometry">
            <mxPoint x="-3" y="-9" as="offset" />
          </mxGeometry>
        </mxCell>
        <mxCell id="i-1P1SJiFzJJRI6rw9ve-15" style="rounded=0;orthogonalLoop=1;jettySize=auto;html=1;exitX=0.5;exitY=1;exitDx=0;exitDy=0;entryX=0.5;entryY=0;entryDx=0;entryDy=0;fontFamily=Helvetica;fontSize=12;endArrow=classicThin;endFill=1;dashed=1;" edge="1" parent="1" source="i-1P1SJiFzJJRI6rw9ve-18" target="i-1P1SJiFzJJRI6rw9ve-21">
          <mxGeometry relative="1" as="geometry">
            <mxPoint x="590" y="350" as="sourcePoint" />
          </mxGeometry>
        </mxCell>
        <mxCell id="i-1P1SJiFzJJRI6rw9ve-16" value="$$n$$" style="edgeLabel;html=1;align=center;verticalAlign=middle;resizable=0;points=[];labelBackgroundColor=none;" vertex="1" connectable="0" parent="i-1P1SJiFzJJRI6rw9ve-15">
          <mxGeometry relative="1" as="geometry">
            <mxPoint x="7" y="-5" as="offset" />
          </mxGeometry>
        </mxCell>
        <mxCell id="i-1P1SJiFzJJRI6rw9ve-17" value="" style="edgeStyle=orthogonalEdgeStyle;rounded=0;orthogonalLoop=1;jettySize=auto;html=1;" edge="1" parent="1" source="i-1P1SJiFzJJRI6rw9ve-18" target="i-1P1SJiFzJJRI6rw9ve-21">
          <mxGeometry relative="1" as="geometry" />
        </mxCell>
        <mxCell id="i-1P1SJiFzJJRI6rw9ve-18" value="$$N$$" style="rounded=1;whiteSpace=wrap;html=1;fillColor=#fff2cc;strokeColor=#d6b656;fontFamily=Helvetica;fontSize=12;fontStyle=2;absoluteArcSize=1;arcSize=10;" vertex="1" parent="1">
          <mxGeometry x="460" y="460" width="60" height="40" as="geometry" />
        </mxCell>
        <mxCell id="i-1P1SJiFzJJRI6rw9ve-19" style="rounded=0;orthogonalLoop=1;jettySize=auto;html=1;exitX=1;exitY=0.5;exitDx=0;exitDy=0;fontFamily=Helvetica;fontSize=12;endArrow=classicThin;endFill=1;" edge="1" parent="1" source="i-1P1SJiFzJJRI6rw9ve-40">
          <mxGeometry relative="1" as="geometry">
            <mxPoint x="600" y="430" as="targetPoint" />
          </mxGeometry>
        </mxCell>
        <mxCell id="i-1P1SJiFzJJRI6rw9ve-20" style="rounded=0;orthogonalLoop=1;jettySize=auto;html=1;entryX=0.5;entryY=1;entryDx=0;entryDy=0;endArrow=none;endFill=0;exitX=1;exitY=0.5;exitDx=0;exitDy=0;" edge="1" parent="1" source="i-1P1SJiFzJJRI6rw9ve-21" target="i-1P1SJiFzJJRI6rw9ve-40">
          <mxGeometry relative="1" as="geometry">
            <mxPoint x="590" y="430" as="sourcePoint" />
            <Array as="points">
              <mxPoint x="560" y="550" />
            </Array>
          </mxGeometry>
        </mxCell>
        <mxCell id="i-1P1SJiFzJJRI6rw9ve-21" value="$$+$$" style="ellipse;whiteSpace=wrap;html=1;aspect=fixed;fontFamily=Helvetica;fontSize=12;spacing=0;" vertex="1" parent="1">
          <mxGeometry x="480" y="540" width="20" height="20" as="geometry" />
        </mxCell>
        <mxCell id="i-1P1SJiFzJJRI6rw9ve-22" style="edgeStyle=orthogonalEdgeStyle;rounded=0;orthogonalLoop=1;jettySize=auto;html=1;exitX=1;exitY=0.5;exitDx=0;exitDy=0;entryX=0.5;entryY=1;entryDx=0;entryDy=0;endArrow=classicThin;endFill=1;" edge="1" parent="1" source="i-1P1SJiFzJJRI6rw9ve-23" target="i-1P1SJiFzJJRI6rw9ve-36">
          <mxGeometry relative="1" as="geometry" />
        </mxCell>
        <mxCell id="i-1P1SJiFzJJRI6rw9ve-23" value="$$\Delta$$" style="rounded=1;whiteSpace=wrap;html=1;fontFamily=Helvetica;fontSize=18;fontStyle=0;absoluteArcSize=1;arcSize=10;" vertex="1" parent="1">
          <mxGeometry x="280" y="460" width="60" height="40" as="geometry" />
        </mxCell>
        <mxCell id="i-1P1SJiFzJJRI6rw9ve-24" value="" style="endArrow=none;html=1;rounded=0;fontFamily=Helvetica;fontSize=12;exitX=0.5;exitY=0;exitDx=0;exitDy=0;" edge="1" parent="1" source="i-1P1SJiFzJJRI6rw9ve-39">
          <mxGeometry width="50" height="50" relative="1" as="geometry">
            <mxPoint x="160" y="440" as="sourcePoint" />
            <mxPoint x="160" y="380" as="targetPoint" />
          </mxGeometry>
        </mxCell>
        <mxCell id="i-1P1SJiFzJJRI6rw9ve-25" value="" style="endArrow=none;html=1;rounded=0;entryX=0;entryY=0.5;entryDx=0;entryDy=0;fontFamily=Helvetica;fontSize=12;endFill=0;" edge="1" parent="1" target="i-1P1SJiFzJJRI6rw9ve-29">
          <mxGeometry width="50" height="50" relative="1" as="geometry">
            <mxPoint x="160" y="380" as="sourcePoint" />
            <mxPoint x="200" y="380" as="targetPoint" />
          </mxGeometry>
        </mxCell>
        <mxCell id="i-1P1SJiFzJJRI6rw9ve-27" value="" style="endArrow=none;html=1;rounded=0;entryX=0;entryY=0.5;entryDx=0;entryDy=0;fontFamily=Helvetica;fontSize=12;endFill=0;exitX=1;exitY=0.5;exitDx=0;exitDy=0;" edge="1" parent="1" source="i-1P1SJiFzJJRI6rw9ve-43" target="i-1P1SJiFzJJRI6rw9ve-33">
          <mxGeometry width="50" height="50" relative="1" as="geometry">
            <mxPoint x="100" y="480" as="sourcePoint" />
            <mxPoint x="180" y="499.71000000000004" as="targetPoint" />
            <Array as="points">
              <mxPoint x="160" y="480" />
            </Array>
          </mxGeometry>
        </mxCell>
        <mxCell id="i-1P1SJiFzJJRI6rw9ve-28" style="edgeStyle=orthogonalEdgeStyle;rounded=0;orthogonalLoop=1;jettySize=auto;html=1;exitX=1;exitY=0.5;exitDx=0;exitDy=0;entryX=0.5;entryY=0;entryDx=0;entryDy=0;endArrow=classicThin;endFill=1;" edge="1" parent="1" source="i-1P1SJiFzJJRI6rw9ve-29" target="i-1P1SJiFzJJRI6rw9ve-36">
          <mxGeometry relative="1" as="geometry" />
        </mxCell>
        <mxCell id="i-1P1SJiFzJJRI6rw9ve-29" value="$$K_p$$" style="triangle;whiteSpace=wrap;html=1;align=left;spacingLeft=4;fontFamily=Helvetica;fontSize=12;spacing=0;" vertex="1" parent="1">
          <mxGeometry x="200" y="360" width="40" height="40" as="geometry" />
        </mxCell>
        <mxCell id="i-1P1SJiFzJJRI6rw9ve-30" style="rounded=0;orthogonalLoop=1;jettySize=auto;html=1;exitX=1;exitY=0.5;exitDx=0;exitDy=0;entryX=0;entryY=0.5;entryDx=0;entryDy=0;endArrow=classicThin;endFill=1;" edge="1" parent="1" source="i-1P1SJiFzJJRI6rw9ve-31" target="i-1P1SJiFzJJRI6rw9ve-35">
          <mxGeometry relative="1" as="geometry" />
        </mxCell>
        <mxCell id="i-1P1SJiFzJJRI6rw9ve-31" value="$$K_i$$" style="triangle;whiteSpace=wrap;html=1;align=left;spacingLeft=4;fontFamily=Helvetica;fontSize=12;spacing=0;" vertex="1" parent="1">
          <mxGeometry x="200" y="410" width="40" height="40" as="geometry" />
        </mxCell>
        <mxCell id="i-1P1SJiFzJJRI6rw9ve-32" style="edgeStyle=orthogonalEdgeStyle;rounded=0;orthogonalLoop=1;jettySize=auto;html=1;exitX=1;exitY=0.5;exitDx=0;exitDy=0;entryX=0;entryY=0.5;entryDx=0;entryDy=0;endArrow=classicThin;endFill=1;" edge="1" parent="1" source="i-1P1SJiFzJJRI6rw9ve-33" target="i-1P1SJiFzJJRI6rw9ve-23">
          <mxGeometry relative="1" as="geometry" />
        </mxCell>
        <mxCell id="i-1P1SJiFzJJRI6rw9ve-33" value="$$K_d$$" style="triangle;whiteSpace=wrap;html=1;align=left;spacingLeft=4;fontFamily=Helvetica;fontSize=12;spacing=0;" vertex="1" parent="1">
          <mxGeometry x="200" y="460" width="40" height="40" as="geometry" />
        </mxCell>
        <mxCell id="i-1P1SJiFzJJRI6rw9ve-34" style="edgeStyle=orthogonalEdgeStyle;rounded=0;orthogonalLoop=1;jettySize=auto;html=1;exitX=1;exitY=0.5;exitDx=0;exitDy=0;entryX=0;entryY=0.5;entryDx=0;entryDy=0;endArrow=classicThin;endFill=1;" edge="1" parent="1" source="i-1P1SJiFzJJRI6rw9ve-35" target="i-1P1SJiFzJJRI6rw9ve-36">
          <mxGeometry relative="1" as="geometry">
            <Array as="points">
              <mxPoint x="340" y="440" />
              <mxPoint x="340" y="440" />
            </Array>
          </mxGeometry>
        </mxCell>
        <mxCell id="i-1P1SJiFzJJRI6rw9ve-35" value="$$\sum$$" style="rounded=1;whiteSpace=wrap;html=1;fontFamily=Helvetica;fontSize=12;fontStyle=0;absoluteArcSize=1;arcSize=10;" vertex="1" parent="1">
          <mxGeometry x="280" y="410" width="60" height="40" as="geometry" />
        </mxCell>
        <mxCell id="i-1P1SJiFzJJRI6rw9ve-36" value="$$+$$" style="ellipse;whiteSpace=wrap;html=1;aspect=fixed;fontFamily=Helvetica;fontSize=12;spacing=0;" vertex="1" parent="1">
          <mxGeometry x="380" y="420" width="20" height="20" as="geometry" />
        </mxCell>
        <mxCell id="i-1P1SJiFzJJRI6rw9ve-37" value="$$-$$" style="triangle;whiteSpace=wrap;html=1;align=left;spacingLeft=9;fontFamily=Helvetica;fontSize=12;rotation=-180;spacing=0;" vertex="1" parent="1">
          <mxGeometry x="200" y="530" width="40" height="40" as="geometry" />
        </mxCell>
        <mxCell id="i-1P1SJiFzJJRI6rw9ve-38" style="edgeStyle=orthogonalEdgeStyle;rounded=0;orthogonalLoop=1;jettySize=auto;html=1;exitX=1;exitY=0.5;exitDx=0;exitDy=0;entryX=0;entryY=0.5;entryDx=0;entryDy=0;endArrow=none;endFill=0;" edge="1" parent="1" source="i-1P1SJiFzJJRI6rw9ve-39" target="i-1P1SJiFzJJRI6rw9ve-31">
          <mxGeometry relative="1" as="geometry" />
        </mxCell>
        <mxCell id="i-1P1SJiFzJJRI6rw9ve-39" value="" style="ellipse;whiteSpace=wrap;html=1;strokeColor=none;fillColor=#000000;" vertex="1" parent="1">
          <mxGeometry x="157" y="427" width="6" height="6" as="geometry" />
        </mxCell>
        <mxCell id="i-1P1SJiFzJJRI6rw9ve-40" value="" style="ellipse;whiteSpace=wrap;html=1;strokeColor=none;fillColor=#000000;" vertex="1" parent="1">
          <mxGeometry x="557" y="427" width="6" height="6" as="geometry" />
        </mxCell>
        <mxCell id="i-1P1SJiFzJJRI6rw9ve-41" value="$$C$$" style="text;html=1;strokeColor=none;fillColor=none;align=center;verticalAlign=middle;whiteSpace=wrap;rounded=0;" vertex="1" parent="1">
          <mxGeometry x="250" y="330" width="60" height="40" as="geometry" />
        </mxCell>
        <mxCell id="i-1P1SJiFzJJRI6rw9ve-42" value="" style="endArrow=none;html=1;rounded=0;edgeStyle=orthogonalEdgeStyle;entryX=0;entryY=0.5;entryDx=0;entryDy=0;exitX=0;exitY=0.5;exitDx=0;exitDy=0;" edge="1" parent="1" source="i-1P1SJiFzJJRI6rw9ve-37" target="i-1P1SJiFzJJRI6rw9ve-21">
          <mxGeometry width="50" height="50" relative="1" as="geometry">
            <mxPoint x="520" y="548" as="sourcePoint" />
            <mxPoint x="610" y="440" as="targetPoint" />
          </mxGeometry>
        </mxCell>
        <mxCell id="i-1P1SJiFzJJRI6rw9ve-44" style="edgeStyle=orthogonalEdgeStyle;rounded=0;orthogonalLoop=1;jettySize=auto;html=1;exitX=0.5;exitY=0;exitDx=0;exitDy=0;entryX=0.5;entryY=1;entryDx=0;entryDy=0;endArrow=classicThin;endFill=1;" edge="1" parent="1" source="i-1P1SJiFzJJRI6rw9ve-43" target="i-1P1SJiFzJJRI6rw9ve-12">
          <mxGeometry relative="1" as="geometry" />
        </mxCell>
        <mxCell id="i-1P1SJiFzJJRI6rw9ve-43" value="" style="ellipse;whiteSpace=wrap;html=1;strokeColor=none;fillColor=#000000;" vertex="1" parent="1">
          <mxGeometry x="87" y="477" width="6" height="6" as="geometry" />
        </mxCell>
      </root>
    </mxGraphModel>
  </diagram>
</mxfile>
